<?xml version="1.0" encoding="UTF-8"?>
<svg width="379px" height="124px" viewBox="0 0 379 124" version="1.1" xmlns="http://www.w3.org/2000/svg" xmlns:xlink="http://www.w3.org/1999/xlink">
    <!-- Generator: Sketch 63.1 (92452) - https://sketch.com -->
    <title>logo</title>
    <desc>Created with Sketch.</desc>
    <g id="Redesign" stroke="none" stroke-width="1" fill="none" fill-rule="evenodd">
        <g id="Artboard" transform="translate(0.000000, -1.000000)">
            <g id="Group" transform="translate(-2.000000, 3.000000)">
                <path d="M147.533466,107.847697 C149.938227,111.643371 153.227107,114.630147 157.399102,116.806043 C161.619213,118.935348 166.331503,120 171.533967,120 C175.75508,120 179.607309,119.305101 183.092659,117.916295 C186.626125,116.527489 189.595239,114.514166 192,111.875335 L185.816185,106.319118 C182.086248,110.162374 177.497254,112.083507 172.049201,112.083507 C168.515736,112.083507 165.350151,111.365808 162.552449,109.930411 C159.754746,108.449414 157.570513,106.4123 155.999749,103.82006 C154.428986,101.226828 153.644106,98.2876346 153.644106,95.0004956 C153.644106,91.7133567 154.428986,88.7731716 155.999749,86.1809314 C157.570513,83.5886913 159.754746,81.574377 162.552449,80.1389798 C165.350151,78.6579829 168.515736,77.9174845 172.049201,77.9174845 C177.497254,77.9174845 182.086248,79.8148258 185.816185,83.6114911 L192,78.1256567 C189.595239,75.4868257 186.650183,73.4725114 183.165835,72.0837051 C179.681487,70.6948988 175.828255,70 171.607142,70 C166.404678,70 161.69339,71.0884435 157.472277,73.2643391 C153.300282,75.3936438 150.012405,78.3566288 147.607643,82.1532941 C145.20188,85.9489681 144,90.2313686 144,95.0004956 C144,99.7686314 145.177822,104.051032 147.533466,107.847697 Z" id="Path" fill="#111111" fill-rule="nonzero"></path>
                <polygon id="Path" fill="#111111" fill-rule="nonzero" points="202.886194 119 193 119 216.241246 70 225.684414 70 249 119 238.965126 119 220.889495 79.1001285"></polygon>
                <path d="M259.728291,118.403021 C263.444306,119.467674 267.282158,120 271.242845,120 C275.74181,120 279.555694,119.351692 282.684496,118.055076 C285.814298,116.759452 288.137182,115.022701 289.653148,112.846805 C291.21705,110.670909 292,108.241242 292,105.55582 C292,102.407462 291.12018,99.9074129 289.359542,98.0556712 C287.647838,96.2039295 285.569626,94.837923 283.124906,93.9586431 C280.680185,93.0327723 277.550384,92.1534923 273.7365,91.3198121 C270.949239,90.6715042 268.74919,90.0925871 267.135355,89.584052 C265.522519,89.0745257 264.177323,88.3796269 263.101766,87.500347 C262.075143,86.621067 261.561832,85.4860326 261.561832,84.0972264 C261.561832,82.1067031 262.465619,80.5097246 264.275192,79.3062908 C266.133699,78.1018656 268.944928,77.5001487 272.709877,77.5001487 C275.007794,77.5001487 277.379613,77.8243026 279.824333,78.4726105 C282.269054,79.1209183 284.616904,80.069589 286.865887,81.3196138 L289.872853,74.3061916 C287.672805,72.9173854 285.056315,71.8517417 282.024382,71.1112433 C278.993448,70.3707449 275.912581,70 272.783778,70 C268.284813,70 264.470929,70.6483079 261.341128,71.9449236 C258.261259,73.2415393 255.938375,75.0000991 254.373475,77.2225857 C252.857508,79.3984813 252.099525,81.8291401 252.099525,84.5145621 C252.099525,87.7085192 252.955377,90.2551597 254.667081,92.1534923 C256.427719,94.005234 258.504932,95.3702492 260.901717,96.2505204 C263.346438,97.1298004 266.524175,98.0090803 270.435927,98.8893515 C273.223188,99.5376594 275.424236,100.115585 277.037072,100.625112 C278.650907,101.134638 279.971136,101.852336 280.997759,102.778207 C282.073316,103.657487 282.611594,104.79153 282.611594,106.180337 C282.611594,108.078669 281.657874,109.606257 279.751431,110.764091 C277.892924,111.920934 275.056729,112.499851 271.242845,112.499851 C268.162976,112.499851 265.082109,112.014116 262.001242,111.041654 C258.970308,110.023593 256.402752,108.726977 254.300572,107.152798 L251,114.166221 C253.151114,115.925772 256.060212,117.338369 259.728291,118.403021 Z" id="Path" fill="#111111" fill-rule="nonzero"></path>
                <polygon id="Path" fill="#111111" fill-rule="nonzero" points="311.185073 77.7001856 294 77.7001856 294 70 338 70 338 77.7001856 320.814927 77.7001856 320.814927 119 311.185073 119"></polygon>
                <path d="M348.728291,118.403021 C352.444306,119.467674 356.282158,120 360.242845,120 C364.74181,120 368.555694,119.351692 371.685495,118.055076 C374.814298,116.759452 377.137182,115.022701 378.653148,112.846805 C380.218049,110.670909 381,108.241242 381,105.55582 C381,102.407462 380.12018,99.9074129 378.359542,98.0556712 C376.647838,96.2039295 374.569626,94.837923 372.124906,93.9586431 C369.680185,93.0327723 366.551382,92.1534923 362.7365,91.3198121 C359.950237,90.6715042 357.74919,90.0925871 356.135355,89.584052 C354.522519,89.0745257 353.177323,88.3796269 352.101766,87.500347 C351.075143,86.621067 350.561832,85.4860326 350.561832,84.0972264 C350.561832,82.1067031 351.466618,80.5097246 353.275192,79.3062908 C355.133699,78.1018656 357.944928,77.5001487 361.709877,77.5001487 C364.007794,77.5001487 366.379613,77.8243026 368.824333,78.4726105 C371.269054,79.1209183 373.616904,80.069589 375.865887,81.3196138 L378.872853,74.3061916 C376.672805,72.9173854 374.056315,71.8517417 371.025381,71.1112433 C367.993448,70.3707449 364.912581,70 361.783778,70 C357.284813,70 353.470929,70.6483079 350.341128,71.9449236 C347.261259,73.2415393 344.938375,75.0000991 343.373475,77.2225857 C341.857508,79.3984813 341.099525,81.8291401 341.099525,84.5145621 C341.099525,87.7085192 341.955377,90.2551597 343.667081,92.1534923 C345.427719,94.005234 347.505931,95.3702492 349.901717,96.2505204 C352.346438,97.1298004 355.524175,98.0090803 359.435927,98.8893515 C362.223188,99.5376594 364.424236,100.115585 366.037072,100.625112 C367.650907,101.134638 368.971136,101.852336 369.997759,102.778207 C371.074315,103.657487 371.611594,104.79153 371.611594,106.180337 C371.611594,108.078669 370.657874,109.606257 368.751431,110.764091 C366.892924,111.920934 364.056729,112.499851 360.242845,112.499851 C357.162976,112.499851 354.082109,112.014116 351.001242,111.041654 C347.970308,110.023593 345.402752,108.726977 343.300572,107.152798 L340,114.166221 C342.151114,115.925772 345.060212,117.338369 348.728291,118.403021 Z" id="Path" fill="#111111" fill-rule="nonzero"></path>
                <path d="M361.256424,51 C357.488452,51 353.837794,50.4569529 350.302463,49.3708586 C346.813857,48.2847643 344.047033,46.8443772 342,45.0507066 L345.139645,37.8962119 C347.139951,39.5021375 349.581676,40.8234176 352.465815,41.8630804 C355.395687,42.8542928 358.325558,43.3498991 361.256424,43.3498991 C364.884215,43.3498991 367.581447,42.7604204 369.349113,41.5794442 C371.163506,40.3984681 372.070205,38.8409928 372.070205,36.90399 C372.070205,35.487828 371.558198,34.3310771 370.535179,33.4337371 C369.558887,32.4889562 368.302233,31.7571547 366.768201,31.2373234 C365.233175,30.7185014 363.139416,30.1280133 360.488911,29.4668685 C356.767666,28.5695286 353.744341,27.6721886 351.418935,26.7748486 C349.140257,25.8775086 347.162817,24.4845624 345.488605,22.59601 C343.86112,20.6600166 343.04688,18.0628785 343.04688,14.8045957 C343.04688,12.0651348 343.767666,9.58609429 345.209238,7.36646479 C346.698532,5.10040375 348.907617,3.30572379 351.837489,1.98343427 C354.814087,0.661144757 358.441878,0 362.720863,0 C365.698455,0 368.628327,0.377508609 371.512466,1.13353521 C374.39561,1.88855243 376.884062,2.97464672 378.976828,4.39181807 L376.116549,11.5463128 C373.977057,10.2704548 371.744111,9.30245814 369.418706,8.64131338 C367.093301,7.98016863 364.837489,7.65010094 362.65127,7.65010094 C359.070205,7.65010094 356.39584,8.26380477 354.628174,9.49222183 C352.907235,10.7196295 352.047262,12.3487709 352.047262,14.3796461 C352.047262,15.7958081 352.535408,16.9525591 353.511701,17.8498991 C354.535714,18.747239 355.81424,19.4558247 357.349266,19.9746467 C358.884292,20.4944781 360.977057,21.0849662 363.628556,21.7461109 C367.256348,22.59601 370.232946,23.49335 372.558351,24.4381309 C374.883757,25.3344615 376.861196,26.7284171 378.488682,28.6169695 C380.162894,30.5055219 381,33.0562285 381,36.2670704 C381,39.0055219 380.256348,41.4845624 378.768048,43.7041919 C377.326476,45.9238214 375.116396,47.6942762 372.139798,49.0165657 C369.1632,50.3388552 365.535408,51 361.256424,51 Z" id="Path" fill="#111111" fill-rule="nonzero"></path>
                <polygon id="Path" fill="#111111" points="153.357565 50 170.395021 10.1001567 187.503126 50 197 50 174.934495 1 165.995851 1 144 50"></polygon>
                <polygon id="Path" fill="#111111" fill-rule="nonzero" points="212.173586 1 203 1 203 50 238 50 238 42.2993303 212.173586 42.2993303"></polygon>
                <path d="M266.149551,1 C270.394816,1 274.078764,1.70024225 277.204387,3.09972925 C280.375872,4.50021375 282.801595,6.50617837 284.480558,9.1196181 C286.159521,11.7330578 287,14.8362681 287,18.429249 C287,21.9763451 286.159521,25.0795554 284.480558,27.7398775 C282.801595,30.3533172 280.375872,32.3592818 277.204387,33.7597663 C274.078764,35.1592533 270.394816,35.8594956 266.149551,35.8594956 L255.095713,35.8594956 L255.095713,50 L246,50 L246,1 L266.149551,1 Z M265.729811,28.1598233 C269.694915,28.1598233 272.702891,27.3199316 274.755733,25.6401482 C276.807577,23.9593673 277.834497,21.5563992 277.834497,18.429249 C277.834497,15.3030963 276.807577,12.9001282 274.755733,11.2193474 C272.702891,9.53956395 269.694915,8.69967225 265.729811,8.69967225 L255.095713,8.69967225 L255.095713,28.1598233 L265.729811,28.1598233 Z" id="Shape" fill="#111111"></path>
                <polygon id="Path" fill="#111111" points="295.357565 50 312.396016 10.1001567 329.504121 50 339 50 316.934495 1 307.996846 1 286 50"></polygon>
                <circle id="Oval" fill="#F85A3E" fill-rule="nonzero" cx="170.5" cy="44.5" r="5.5"></circle>
                <polygon id="Path" fill="#F85A3E" fill-rule="nonzero" points="0 0 120 0 120 120 0 120"></polygon>
                <polygon id="Path" fill="#2A5BD7" fill-rule="nonzero" points="0 0 120 0 60 60 120 120 0 120"></polygon>
                <polygon id="Path" fill="#FDD661" fill-rule="nonzero" points="0 0 120 0 60 60 0 120"></polygon>
            </g>
        </g>
    </g>
</svg>